<?xml version="1.0" encoding="utf-8"?>
<!-- Generator: $$$/GeneralStr/196=Adobe Illustrator 27.6.0, SVG Export Plug-In . SVG Version: 6.00 Build 0)  -->
<svg version="1.1" xmlns="http://www.w3.org/2000/svg" xmlns:xlink="http://www.w3.org/1999/xlink" x="0px" y="0px"
	 viewBox="0 0 197.8 197.8" style="enable-background:new 0 0 197.8 197.8;" xml:space="preserve">
<style type="text/css">
	.st0{fill:#986DF8;}
	.st1{fill-rule:evenodd;clip-rule:evenodd;fill:#FFFFFF;}
</style>
<g id="fond">
	<rect class="st0" width="197.8" height="197.8"/>
</g>
<g id="icone">
	<g>
		<circle class="st1" cx="98.9" cy="82.4" r="14.9"/>
		<path class="st1" d="M98.9,52.5c-22,0-39.8,17.8-39.8,39.8s17.8,39.8,39.8,39.8s39.8-17.8,39.8-39.8S120.9,52.5,98.9,52.5z
			 M126.1,114.1c-3.5-5.7-11.3-11.8-27.2-11.8s-23.7,6.1-27.2,11.8c-4.9-6.2-7.6-13.8-7.6-21.7c0-19.2,15.6-34.8,34.8-34.8
			c7.9,0,15.6,2.7,21.7,7.6C135.7,77.1,138.1,99.1,126.1,114.1z"/>
	</g>
</g>
</svg>
