<?xml version="1.0" encoding="utf-8"?>
<!-- Generator: $$$/GeneralStr/196=Adobe Illustrator 27.6.0, SVG Export Plug-In . SVG Version: 6.00 Build 0)  -->
<svg version="1.1" id="Calque_1" xmlns="http://www.w3.org/2000/svg" xmlns:xlink="http://www.w3.org/1999/xlink" x="0px" y="0px"
	 viewBox="0 0 471.5 569.3" style="enable-background:new 0 0 471.5 569.3;" xml:space="preserve">
<style type="text/css">
	.st0{fill:#FAE6DB;}
	.st1{fill:#F2B45A;}
	.st2{fill:#FFFFFF;stroke:#19154B;stroke-width:0.5;stroke-linecap:round;stroke-miterlimit:10;}
	.st3{fill:#FFFFFF;stroke:#1B2939;stroke-width:0.5;stroke-linecap:round;stroke-miterlimit:10;}
	.st4{fill:#1B2939;}
	.st5{fill:#19154B;}
	.st6{fill:#FFFFFF;}
	.st7{fill:#19154B;stroke:#19154B;stroke-miterlimit:10;}
	.st8{fill:none;stroke:#19154B;stroke-width:0.5;stroke-linecap:round;stroke-miterlimit:10;}
	.st9{fill:#8F6FF1;}
	.st10{fill:none;stroke:#1B2939;stroke-width:0.5;stroke-linecap:round;stroke-miterlimit:10;}
	.st11{fill:none;stroke:#FFFFFF;stroke-width:0.5;stroke-linecap:round;stroke-miterlimit:10;}
	.st12{fill:none;stroke:#19154B;stroke-miterlimit:10;}
</style>
<path class="st0" d="M331.5,104.2c18.2,58.5-33.6,105.6-111.1,129.8c-77.5,24.2-112.3,77.5-146.8,26.9
	C22.4,186.2,80.6,66.2,158.1,42C235.6,17.9,313.2,45.7,331.5,104.2z"/>
<ellipse class="st1" cx="362" cy="195" rx="27.1" ry="32.1"/>
<rect x="379.3" y="283.2" class="st0" width="7.5" height="210.9"/>
<path class="st2" d="M322.9,273.3c0,0,16,3,25.6-4.1c4.7-3.4,11.2-3.3,15.1,0.9c0.3,0.3,0.6,0.6,0.9,1c0.6,0.8,1.6,1.2,2.6,1.2l0,0
	c2.5,0,4-2.8,2.7-4.9c-3.5-5.8-8.8-12.2-18.6-15.5c-14.5-4.8-30,1.2-30,1.2S325.2,264.2,322.9,273.3z"/>
<path class="st2" d="M345.5,329.4c-0.5-27.3-22.8-49.3-50.3-49.3c-1,0-1.9,0-2.9,0.1h-45.2v28.6h2.6c-3.1,6.5-4.9,13.9-4.9,21.6
	c0,27.8,22.5,50.3,50.3,50.3c0.4,0,0.8,0,1.1,0v8.2h49.3v-59.4H345.5z"/>
<path class="st2" d="M222.4,179.3h-93.1c-16.8,0-30.3,13.6-30.3,30.3v155.8c0,20.6,16.7,37.4,37.4,37.4h123.5
	c0,0-7.8-131.6-7.1-192.8C253,193.1,239.3,179.3,222.4,179.3z"/>
<path class="st3" d="M258.7,130.4c-6.3-6.1-20.2-6.6-28.4,1.5c-5,4.9-9,14.1-7.8,21l-13.7,20.4c0,0,16.4,9.4,29.8,7.8
	c0,0-0.8-5.8,2.3-10.7c1.7,0.8,3.5,1.1,5.2,0.4c6.7-2.5,9.3-10.5,9.3-10.5s3,1.8,3.9,1c0.8-0.9-0.7-6.1,1.2-9.7
	C262.4,148.1,265.1,136.5,258.7,130.4z"/>
<path class="st4" d="M222.2,157.2c-1.7,1.8-4.6,0.4-4.3-2c0.2-2,0.2-4.4-0.1-7.5c-1.4-12.2,7.9-32.7,29.1-30.3
	c18.5,2.1,19.7,15.5,15.8,19.7c-0.9,0.9-2.3,1-3.3,0.3c-3.1-2.3-11.8-8-22.6-6.9c-1,0.1-1.8,0.8-2.1,1.8
	C233.4,136.6,229.4,149.5,222.2,157.2z"/>
<path class="st5" d="M220.9,157.9c0,0,9.4-2.1,14.7-10.8l3.7,1.2c0,0,5.4-1.7,6.7-13c0,0,15.9,7.6,23.1-0.5s-13.7-12.9-24.8-13.1
	C233.1,121.5,219.1,148.1,220.9,157.9z"/>
<path class="st6" d="M240.2,149.3c0,0,1.6-6.7-3.8-6.9c-5.4-0.2-6.2,10.6-2.2,11.3C238.2,154.4,240.2,149.3,240.2,149.3z"/>
<path class="st3" d="M238.1,149.7c0,0,1.5-4.1-2.8-4.2"/>
<path class="st5" d="M253.7,152.7c-0.1,0.9,0.2,1.7,0.7,1.8c0.5,0,0.9-0.7,1-1.6c0.1-0.9-0.2-1.7-0.7-1.8
	C254.3,151,253.8,151.7,253.7,152.7z"/>
<path class="st5" d="M252.8,149c0,0,1.5-0.3,3.4,0.2c1.9,0.4,1.9-1.9-0.7-1.9C252.9,147.3,251.9,149,252.8,149z"/>
<path class="st5" d="M241.5,170.1c0,0-7.4-4.2-8.1-3.2c-0.7,1,4,10.5,5.5,9.3C239.1,176.2,239.4,172,241.5,170.1z"/>
<path class="st3" d="M251.8,166.5c0,0-0.7-1.6-2.2-1.6"/>
<g>
	<rect x="180.9" y="402.9" class="st7" width="13.6" height="69.6"/>
	<g>
		<g>
			<g>
				<circle class="st7" cx="146.8" cy="483.3" r="7.5"/>
				<circle class="st7" cx="227.4" cy="483.3" r="7.5"/>
			</g>
			<line class="st8" x1="145.5" y1="483.3" x2="226.1" y2="483.3"/>
		</g>
		<path class="st8" d="M169.9,481.6v-3.5c0-3.7,2.9-6.6,6.6-6.6h23c3.6,0,6.6,6.8,6.6,6.6v3.7"/>
	</g>
</g>
<path class="st5" d="M324.2,272.1c0,0-45.3,1.4-54-0.7c-8.7-2.2-36.5-22-36.5-22l-5.1,89.3l-82.3-3.1c0,0,0.5-25.5,3.1-56.1
	c0.1,0.1,0.2,0.2,0.3,0.3c0,0,0.1-1.3,0.4-3.7c2.1-15.5,12-75,44.8-97.6c15.7-10.8,37-7.9,50,5.9l47.7,50.9l28.2,13.4
	C338.1,255.1,324.2,272.1,324.2,272.1z"/>
<path class="st9" d="M357.2,488.4l-89.9-1.4l-4.1-18.7l-1.9-9c-0.5-2.2-1.1-4.5-1.7-6.7c-7.8-25.8-12.8-63.4-7.7-83.1
	c0,0-14.6,5.5-28.4,5.5c-24.2,0-59.8-4.2-73-27.1c-12.9-22.5-1.2-52.7-1.2-52.7s101.9-15.6,131.3-5.6c40.3,13.7,54.8,63,81.7,81.9
	c-3.2,4.5-7.2,12.8-5.8,25c1.6,13-8.7,24-15.4,29.6c-8.3-7.1-20.1-18.6-28.4-32.9c0,0-3.8,32.4,3.9,54.9c2.4,7,5.8,13,10.9,16.8
	C341.7,475.9,355.2,475.9,357.2,488.4z"/>
<path class="st8" d="M313.4,392.3c0,0,14-63.9-20-64.4c-37-0.6-40.6,28.4-77,28.4"/>
<path class="st5" d="M231.5,286.5c0,0-9.9,25.2-56.9,30.7c-47.1,5.5-5.5-48.3-5.5-48.3L231.5,286.5z"/>
<g>
	<line class="st10" x1="149.6" y1="279.7" x2="125.2" y2="279.7"/>
	<path class="st6" d="M215.1,329.4c-0.5-27.3-22.8-49.3-50.3-49.3c-1,0-1.9,0-2.9,0.1h-45.2v28.6h2.6c-3.1,6.5-4.9,13.9-4.9,21.6
		c0,27.8,22.5,50.3,50.3,50.3c0.4,0,0.8,0,1.1,0v8.2h49.3v-59.4H215.1z"/>
</g>
<path class="st8" d="M251.3,369.9c0,0,4.6-5,9.9-8.5"/>
<path class="st5" d="M397,271.3l20.6-54.8c0.6-1.6-0.2-3.4-1.8-4l-1.3-0.5c-1.6-0.6-3.4,0.2-4,1.8l-18.7,49.9c-0.5,1.2-1.6,2-2.9,2
	h-55.3c-1.7,0-3.1,1.4-3.1,3.1l0,0c0,1.7,1.4,3.1,3.1,3.1h63.2l0,0l0,0h0.2V271.3z"/>
<path class="st2" d="M350.6,257.9c0,0,7.5,2.3,13.6,9.6"/>
<path class="st2" d="M347.4,260.4c0,0,4.6,1.7,9.6,6.5"/>
<line class="st2" x1="215" y1="374.1" x2="215" y2="402.3"/>
<path class="st2" d="M420.6,383.4l-70,50.3c0,0-8.8-6.9-14.6-11.7c6.7-5.7,21.8-12.5,20.3-25.5c-1.4-12.2,2.6-20.5,5.8-25
	c4,2.8,8.4,5,13.1,6.2c4.3,1.1,8.9,1.1,13.3,0.4C394.9,377.1,409.5,375.9,420.6,383.4z"/>
<path class="st2" d="M357.2,488.4l-89.9-1.4l-4.1-18.7c8,0.8,25.5,1.8,35.2-3.5c9.5-5.2,10.6-13.2,18-16.6c2.4,7,5.8,13,10.9,16.8
	C341.7,475.9,355.2,475.9,357.2,488.4z"/>
<path class="st11" d="M233.7,249.4c0,0-9.2-9.3-15.2-10.3"/>
<path class="st2" d="M341.8,461.6c-0.5,0-11.8,5.1-11.8,5.1l5.4-13.1"/>
<path class="st11" d="M251.3,259.5c0,0,27-16.2,34.9,13.2"/>
<polygon class="st5" points="421.2,383.2 350.5,434.1 357.4,439.2 427,387.3 "/>
<polygon class="st5" points="266.8,486.6 268,492.9 358.1,494.4 357.6,488.3 "/>
<path class="st0" d="M411.5,287.6H246c-4.3,0-7.8-3.5-7.8-7.8l0,0c0-4.3,3.5-7.8,7.8-7.8h165.5c4.3,0,7.8,3.5,7.8,7.8l0,0
	C419.3,284.1,415.8,287.6,411.5,287.6z"/>
<rect x="293.6" y="283.2" class="st0" width="7.5" height="210.9"/>
<path class="st5" d="M217.9,155.1c0,0-2.7-9.1-5.2-16.6c-3.5-10.5,4.9-20.1,13.6-17.9c0,0,1.9-9.6,15.8-9.3
	c13.9,0.2,15.5,15.8,25.8,11l-1.7,3.3c0,0,4.3,1,4.3,6.2c0,5.3-20,7.5-27.5,0C235.5,124.3,217.8,155.2,217.9,155.1z"/>
<path class="st12" d="M216.2,119.8c0,0,8.3-4.6,11.7,3.6"/>
<g>
	<path class="st5" d="M376.7,200.4l-12.9-21.9c-0.6-1-1.9-1.4-2.9-0.8c-0.3,0.2-0.6,0.5-0.8,0.8l-12.9,21.9
		c-0.9,1.5,0.2,3.3,1.8,3.3h25.7C376.5,203.7,377.5,201.8,376.7,200.4z M375,201.7c0,0-0.1,0.1-0.1,0.1c0,0-0.1,0-0.1,0h-25.7
		c0,0-0.1,0-0.1,0c0,0-0.1-0.1-0.1-0.1c-0.1-0.1-0.1-0.2,0-0.3l12.9-21.9c0,0,0.1-0.1,0.1-0.1c0,0,0.1,0,0.1,0c0,0,0.1,0,0.1,0
		c0,0,0.1,0.1,0.1,0.1l12.9,21.9C375.1,201.5,375.1,201.6,375,201.7z"/>
	<path class="st5" d="M360.9,193.4c0,0.5,0.4,0.9,0.9,0.9c0.6,0,1.1-0.4,1.1-0.9l0.7-6.6c0-0.1,0-0.2,0-0.4
		c-0.1-0.9-0.9-1.6-1.9-1.5s-1.6,0.9-1.5,1.9L360.9,193.4z"/>
	<path class="st5" d="M362,196.2c-1,0-1.9,0.8-1.9,1.9c0,1,0.8,1.9,1.9,1.9s1.9-0.8,1.9-1.9C363.8,197,363,196.2,362,196.2z"/>
</g>
</svg>
