<?xml version="1.0" encoding="utf-8"?>
<!-- Generator: $$$/GeneralStr/196=Adobe Illustrator 27.6.0, SVG Export Plug-In . SVG Version: 6.00 Build 0)  -->
<svg version="1.1" id="Calque_1" xmlns="http://www.w3.org/2000/svg" xmlns:xlink="http://www.w3.org/1999/xlink" x="0px" y="0px"
	 viewBox="0 0 471.5 596.9" style="enable-background:new 0 0 471.5 596.9;" xml:space="preserve">
<style type="text/css">
	.st0{fill:#FAE6DB;}
	.st1{fill:none;stroke:#1B2939;stroke-width:0.5;stroke-linecap:round;stroke-miterlimit:10;}
	.st2{fill:#19154B;}
	.st3{fill:#FFFFFF;}
	
		.st4{clip-path:url(#SVGID_00000083052855245757840380000003176833816441922944_);fill:none;stroke:#1B2939;stroke-width:0.5;stroke-linecap:round;stroke-miterlimit:10;}
	
		.st5{clip-path:url(#SVGID_00000038392554105642225870000013606791532130344836_);fill:none;stroke:#1B2939;stroke-width:0.5;stroke-linecap:round;stroke-miterlimit:10;}
</style>
<g id="Calque_2_00000111870338010451704660000014728808944003826570_">
	<rect y="-0.1" class="st0" width="471.5" height="597"/>
</g>
<rect x="33.8" y="496.2" class="st1" width="106.8" height="47.3"/>
<polygon class="st2" points="278.3,568.3 191.3,568.3 191.3,443 278.3,401.2 "/>
<rect x="-1.7" y="528.5" class="st2" width="263.7" height="68.5"/>
<polygon class="st3" points="337.4,327 211.8,387.3 211.8,596.9 337.4,596.9 "/>
<circle class="st1" cx="119.8" cy="141.3" r="25.7"/>
<g>
	<g>
		<defs>
			<path id="SVGID_1_" d="M471.5,22.3v553.8c0,12.4-10,22.4-22.4,22.4H20.8c-12.4,0-22.4-10-22.4-22.4V22.3
				c0-12.4,10-22.4,22.4-22.4h428.4C461.5-0.1,471.5,9.9,471.5,22.3z"/>
		</defs>
		<clipPath id="SVGID_00000137110135219745316150000008482154495552096160_">
			<use xlink:href="#SVGID_1_"  style="overflow:visible;"/>
		</clipPath>
		
			<polyline style="clip-path:url(#SVGID_00000137110135219745316150000008482154495552096160_);fill:none;stroke:#1B2939;stroke-width:0.5;stroke-linecap:round;stroke-miterlimit:10;" points="
			489.7,194.7 339,296.7 339,620.1 		"/>
	</g>
	<g>
		<defs>
			<path id="SVGID_00000100366468215639278920000000143051021057144194_" d="M471.5,22.3v553.8c0,12.4-10,22.4-22.4,22.4H20.8
				c-12.4,0-22.4-10-22.4-22.4V22.3c0-12.4,10-22.4,22.4-22.4h428.4C461.5-0.1,471.5,9.9,471.5,22.3z"/>
		</defs>
		<clipPath id="SVGID_00000119082776143202138970000005624355708667988096_">
			<use xlink:href="#SVGID_00000100366468215639278920000000143051021057144194_"  style="overflow:visible;"/>
		</clipPath>
		
			<line style="clip-path:url(#SVGID_00000119082776143202138970000005624355708667988096_);fill:none;stroke:#1B2939;stroke-width:0.5;stroke-linecap:round;stroke-miterlimit:10;" x1="315.4" y1="339.6" x2="315.4" y2="609.1"/>
	</g>
</g>
<path class="st1" d="M282.8,353.4V247.3c0-0.8-0.9-1.3-1.6-0.9l-109,58.9v223.3"/>
<line class="st1" x1="282.8" y1="245.5" x2="409.8" y2="245.5"/>
<polygon class="st3" points="440.1,597 416.3,597 416.3,351.9 440.1,342.9 "/>
<path class="st3" d="M249.9,169.4l128.9-0.4c0,0-10.3-60.1-53.2-20c0,0-19.7-23.6-36.7,6.3C288.9,155.4,249.9,168.4,249.9,169.4z"/>
<polygon class="st2" points="455.3,217.5 324.9,217.5 324.9,244.7 414.5,244.7 "/>
<polygon class="st3" points="395.8,360 372,369 372,596.9 395.8,596.9 "/>
<path class="st3" d="M144.8,423.6l-84.4-22.8C37.7,378.1,13.9,377.6,0,380v43.6H144.8z"/>
</svg>
