<?xml version="1.0" encoding="utf-8"?>
<!-- Generator: $$$/GeneralStr/196=Adobe Illustrator 27.6.0, SVG Export Plug-In . SVG Version: 6.00 Build 0)  -->
<svg version="1.1" id="Calque_1" xmlns="http://www.w3.org/2000/svg" xmlns:xlink="http://www.w3.org/1999/xlink" x="0px" y="0px"
	 viewBox="0 0 343.2 351.5" style="enable-background:new 0 0 343.2 351.5;" xml:space="preserve">
<style type="text/css">
	.st0{fill:#FAE6DB;}
	.st1{fill:none;stroke:#19154B;stroke-width:0.5;stroke-miterlimit:10;}
	.st2{fill:#19154B;}
	.st3{fill:#FFFFFF;stroke:#1B2939;stroke-width:0.5;stroke-linecap:round;stroke-miterlimit:10;}
	.st4{fill:#FFFFFF;}
	.st5{fill:#1B2939;}
	.st6{fill:#F2B45A;}
	.st7{fill:none;stroke:#1B2939;stroke-width:0.5;stroke-linecap:round;stroke-miterlimit:10;}
	.st8{fill:#E97E3E;}
	.st9{fill:#8F6FF1;}
</style>
<ellipse class="st0" cx="266.5" cy="187.1" rx="31.7" ry="27.9"/>
<ellipse class="st0" cx="101.1" cy="150.2" rx="75.4" ry="74.2"/>
<path class="st1" d="M112.6,74.8c7.7,14.9,6.9,24.2-6.8,36c-13.6,11.8,2,24.1,15.9,26.6"/>
<path class="st2" d="M158.5,154.8c-21.4,4.1-42.9-8.4-49.3-29.2c-1.1-3.7-1.6-7.1-1-9.8c3.2-14.4,16.9-14.3,9.4-28.7
	c-8.7-16.7-11.7-30,1.7-41.5c5.2-4.4,4.7-11.4,14.7-16.9c2.4-1.3,4.7-1.1,5.9-2.1c16.5-13.9,33.5,5.4,36.3,11.9
	c1.1,2.6,3.6,4.3,6.3,4.5c2.6,0.2,8,0,14.6,3.5c7,3.8,13,11.4,14.2,17.5c0.5,2.8,2.2,5.1,4.7,6.4c4,2.1,31.7,18.1,27.7,42.1
	c-3.3,20-5.9,29.7-5.9,29.7S187.4,149.3,158.5,154.8z"/>
<path class="st3" d="M175.1,96.4c0,0,40.5-4.1,65.8,19.9c25.3,24.1,29.2,164.1,45,177.4c15.8,13.3,35.8,10.2,26.6,13.3
	c-1.9,0.6-252.8,16.3-265.7-7.7c-16.8-31.5,25.6-10.3,35-32.8c10.6-25.2,20.3-57.4,14.1-81.1c-13.7-52.3,3.5-65.2,51.9-82.4"/>
<path class="st2" d="M245.1,317.2H96c0.3-5,18-13,18.3-17.8c2.4-34.8-11.5-60.1-6.4-73l120.2,8.5c0,0,8.8,29.9,14.4,67.6
	C243.3,307.2,244.1,312.1,245.1,317.2z"/>
<path class="st4" d="M136.5,52.5c-2.3,6.4-13.9,4-12,11.6c1.3,4.9,1.3,2.2,2.5,9.9c2.5,16.4,16.5,22.6,28.8,12.6
	c12.5-10.2,13.2-13.8,5.2-31.2c-2.9-6.4-6.3-7.2-8.9-6.5c-2.8,0.8-5.7,0.3-7.9-1.5C142,45.7,139.1,45.4,136.5,52.5z"/>
<path class="st5" d="M132.7,77.4c0.5,1.2,1.4,1.9,1.9,1.7c0.6-0.2,0.7-1.4,0.2-2.6s-1.4-1.9-1.9-1.7
	C132.2,75.1,132.2,76.3,132.7,77.4z"/>
<path class="st5" d="M148.2,73.3c0.2,1.2,0.9,2.2,1.5,2.2c0.6,0,1-1.1,0.8-2.3c-0.2-1.2-0.9-2.2-1.5-2.2
	C148.4,71.1,148,72.1,148.2,73.3z"/>
<path class="st4" d="M145.4,91.4c0,0,4.3,6.5,2.5,14.3c0,0,17.1,10.3,27.2-9.4c0,0-8.2-18.1-9.8-28.7
	C165.3,67.7,146.5,89.5,145.4,91.4z"/>
<path class="st5" d="M145.4,91.4c0,0,7.1-1.4,12.8-8c5.7-6.6,1.5,11.4-10.3,15.7C147.9,99.1,147.9,96.1,145.4,91.4z"/>
<path class="st5" d="M130.7,64.2c0,0-3.3,1.1-5.2,3.4C123.6,69.9,126.3,60.6,130.7,64.2z"/>
<path class="st5" d="M145.2,59.4c0,0,5.8,0,8,0.4C155.2,60.2,148.3,53.4,145.2,59.4z"/>
<path class="st4" d="M160.9,62.2c0,0,2.1-5.7,6.3-6.5c4.3-0.9,6.2,12.2-2.9,13.3C155.1,70,160.9,62.2,160.9,62.2z"/>
<path class="st6" d="M164.7,69.3c0.8,1.9,3,2.8,4.8,2c1.9-0.8,2.8-3,2-4.8c-0.8-1.9-3-2.8-4.8-2C164.8,65.3,163.9,67.5,164.7,69.3z"
	/>
<path class="st7" d="M164.4,62.6c0,0-0.1-3.5,2.9-4.3"/>
<path class="st3" d="M273.1,298.6c0,0,6.5,5.9,14.3,7.3"/>
<path class="st3" d="M241.1,289.1c0,0,5.2,13.4,16.8,17"/>
<path class="st7" d="M183.9,96.9c0,0-4.9,17.7-25.6,22.7c-19.8,4.9-16.9-14.1-16.9-14.1"/>
<path class="st3" d="M150.6,80.3c0,0,0.2,3.3-3.5,4.2"/>
<path class="st1" d="M139.3,44.5c0,0,7.6,12.9,21.6,3.6"/>
<path class="st1" d="M125.5,37.3c0,0,0,5.5-14.9,12.2c-14.9,6.7-12.9,27.4-3.9,28.2"/>
<path class="st2" d="M234.2,272.8H281c1.7,0,3-1.6,2.6-3.2l-1.8-7.6c-0.3-1.2-1.3-2-2.6-2l-45.1,0V272.8z"/>
<path class="st3" d="M222,161.9c0,0-6.9,25.3,6.1,72.9"/>
<path class="st3" d="M206.7,255.2H32.1c-3.4,0-6.3-2.4-6.9-5.7l-18-96c-0.8-4.3,2.5-8.3,6.9-8.3h174.6c3.4,0,6.3,2.4,6.9,5.7l18,96
	C214.5,251.2,211.1,255.2,206.7,255.2z"/>
<path class="st8" d="M144.5,305h-34.1l-16.8-89c-0.6-3.2,1.9-6.2,5.1-6.2h23.5c2.5,0,4.6,1.8,5.1,4.2L144.5,305z"/>
<path class="st3" d="M44.3,308.2c0,0,2.2-20.3,24.7-22.1c22.5-1.8,24,19.2,24,19.2"/>
<path class="st9" d="M341.3,313c0,4.3-3.5,7.8-7.8,7.8H10.7c-2.1,0-4.1-0.9-5.5-2.3C3.8,317,3,315.1,3,313c0-4.3,3.5-7.8,7.8-7.8
	h322.8c2.1,0,4.1,0.9,5.5,2.3C340.4,308.9,341.3,310.8,341.3,313z"/>
<path class="st3" d="M163.4,304.6h-75c-2.4,0-4.4-2-4.4-4.4l0,0c0-2.4,2-4.4,4.4-4.4h75c2.4,0,4.4,2,4.4,4.4l0,0
	C167.8,302.6,165.8,304.6,163.4,304.6z"/>
<path class="st6" d="M253.6,265.8c0,7,4.4,12.7,9.7,12.7c5.4,0,9.7-5.7,9.7-12.7c0-7-4.4-12.7-9.7-12.7
	C257.9,253.1,253.6,258.8,253.6,265.8z"/>
<path class="st6" d="M149.7,118.2c-3.6,4.2-4,9.8-0.8,12.6c3.2,2.8,8.8,1.7,12.4-2.4c3.6-4.2,4-9.8,0.8-12.6
	C158.9,113,153.4,114.1,149.7,118.2z"/>
</svg>
