<?xml version="1.0" encoding="utf-8"?>
<!-- Generator: $$$/GeneralStr/196=Adobe Illustrator 27.6.0, SVG Export Plug-In . SVG Version: 6.00 Build 0)  -->
<svg version="1.1" id="Calque_1" xmlns="http://www.w3.org/2000/svg" xmlns:xlink="http://www.w3.org/1999/xlink" x="0px" y="0px"
	 viewBox="0 0 471.5 373.4" style="enable-background:new 0 0 471.5 373.4;" xml:space="preserve">
<style type="text/css">
	.st0{fill:#FAE6DB;}
	.st1{fill:#F2B45A;}
	.st2{fill:none;stroke:#1B2939;stroke-width:0.5;stroke-linecap:round;stroke-miterlimit:10;}
	.st3{fill:#FFFFFF;stroke:#1B2939;stroke-width:0.5;stroke-linecap:round;stroke-miterlimit:10;}
	.st4{fill:none;stroke:#FFFFFF;stroke-width:0.5;stroke-linecap:round;stroke-miterlimit:10;}
	.st5{fill:#19154B;}
	.st6{fill:#FFFFFF;}
	.st7{fill:#1B2939;}
	.st8{fill:none;stroke:#19154B;stroke-width:0.5;stroke-linecap:round;stroke-miterlimit:10;}
	.st9{fill:#0A1435;}
	.st10{fill:#8F6FF1;}
	.st11{fill:#E97E3E;}
</style>
<g>
	<circle class="st0" cx="246" cy="167.4" r="113.7"/>
	<path class="st1" d="M311.6,92.1c0,8.9,7.2,16.1,16.1,16.1s16.1-7.2,16.1-16.1S336.6,76,327.7,76C318.8,76.1,311.6,83.3,311.6,92.1
		z"/>
	<path class="st2" d="M240,217.2l11.6-57.7c2-9.9,12.6-15.5,21.9-11.5l10.2,4.4c8.1,3.5,17.5-0.2,20.9-8.3L355.4,27"/>
	<path class="st3" d="M187.2,232.5c-25.9-15.7-45.6-5.4-60.8-7c-42.5-4.6-75.5-3-96.4,62.1c-3.5,10.8-10.8,36.2-9.2,45.5
		c8.4,51.5,69.9,30.5,69.9,30.5s82.8-16.6,141.7-2.6c0,0-11.8-4.4-21.3-41.3C202.9,287.8,215,249.3,187.2,232.5z"/>
	<path class="st4" d="M169.6,276.5c0,0,7.1,11.9,3.9,24.9c-3.3,13-11,36.2-8.6,49.7"/>
	<path class="st3" d="M143.4,327.8c0,0-52.6-25.2-79-12.5"/>
	<path class="st3" d="M92.3,282.8c0,0-9.2,9.8-14,28.6"/>
	<path class="st5" d="M144,203.4c-43.2,21.7-11.6,3.3-21.9,5.4c-13.7,3.9-33-10.6-26.8-18.9c7.7-10.4-8-3.8-3.2-17.7
		c0.9-2.6,4-3.7,4-6.5c0-7.1,3-10.9,9.5-15.7c12.6-9.2,21.2,1.5,21.2,1.5s1-4.9,10.5-4c11.2,1.1,10.9,10.5,16.8,13.8
		c10,5.6,2.6,21.2-8.2,28.7C139.3,194.6,139.9,201.2,144,203.4z"/>
	<path class="st6" d="M136.4,171.8c5.7-3.6,12.6-5.2,13.7,2.4c0.7,4.9,1.3,6.1,3.2,13.5c4,15.9-6.4,27-21.5,22.5
		c-15.3-4.5-18.8-11.2-18.2-30c0.4-13.8,8.5-8.9,8.5-8.9S127.8,177.3,136.4,171.8z"/>
	<path class="st7" d="M147.9,181.5c0,1.3-0.5,2.3-1.1,2.3s-1.1-1-1.1-2.3s0.5-2.3,1.1-2.3S147.9,180.3,147.9,181.5z"/>
	<path class="st7" d="M133.3,183c0.3,1.2,0.1,2.4-0.5,2.6c-0.6,0.2-1.3-0.6-1.6-1.8s-0.1-2.4,0.5-2.6C132.3,181,133,181.8,133.3,183
		z"/>
	<path class="st6" d="M143.2,210.8c0,0-1.4,7.6,3.2,14c0,0,3.7,12.5,0,25.5c-1.1,3.9-5.9,5.2-9,2.6c-6.6-5.5-16.5-15.4-19.3-26.2
		c0,0,0.5-19.7-2-29.9C116,196.8,141.5,209.4,143.2,210.8z"/>
	<path class="st7" d="M143.2,210.8c0,0-7,1.4-14.7-2.4c-7.7-3.9,3,10.9,15.4,10.3C143.8,218.7,142.7,216,143.2,210.8z"/>
	<path class="st7" d="M143.4,174.8c0,0,3.4-0.3,6,1.1C152,177.3,146,169.7,143.4,174.8z"/>
	<path class="st7" d="M131,177.5c0,0-3.3,1.3-4.5,2.9C125.2,182,125.8,173.2,131,177.5z"/>
	<path class="st6" d="M117.8,190c0,0-4.1-4.4-8.3-3.5c-4.2,0.8-1,13.5,7.8,11C126.1,194.9,117.8,190,117.8,190z"/>
	<path class="st2" d="M114.8,191.8c0,0-1.2-3.2-4.3-2.8"/>
	<path class="st5" d="M113.8,186.5c0,0,8.6-4.4,8.6-19.3C122.4,152.3,100.5,168.8,113.8,186.5z"/>
	<path class="st2" d="M116.2,198.1c0,0,3.2,15.7,1.5,28.4"/>
	<path class="st2" d="M143.3,211.5c0,3.9,1.8,13,3.9,14.6"/>
	<path class="st2" d="M152.7,183.9c2.6,16.2,0.1,27.1-11.7,27.4"/>
	<path class="st2" d="M136.8,198.5c0,0-0.8,3.8,4.6,4.1"/>
	<path class="st3" d="M130.6,349.8c0,0,1-17.8,13.3-22.2c0,0,19.7,0.2,35-5.1s23.6,24.7,23.6,24.7s-3.9,4.2-13.3-8.1
		c-0.2-0.3-0.6-0.1-0.6,0.3l2.3,9.4"/>
	<path class="st3" d="M170.2,336c0,0,5.9-5.4,9.7-6.2c3.8-0.7,9.4,9.2,9.4,9.2"/>
	<path class="st3" d="M169.4,340.7c0,0,12.5-5,11.7,4.2"/>
	<path class="st2" d="M111,224.6c0,0,8.1,14.5,27.6,12.1c19.4-2.3,11.6-12.5,11.6-12.5"/>
	<path class="st8" d="M116.6,146.5c-12-1.7-27.3,6.2-19.5,23.1"/>
	<path class="st8" d="M153.3,161.5c0,0,7.1,4,7.3,9.9s-4.3,9.3-4.3,9.3"/>
	<path class="st3" d="M235.6,345.1h-74.7c-1.2,0-2.2,1-2.2,2.2l0,0c0,1.2,1,2.2,2.2,2.2h74.7c1.2,0,2.2-1,2.2-2.2l0,0
		C237.8,346.1,236.8,345.1,235.6,345.1z"/>
	<g>
		<path class="st9" d="M194,332h202.9c5.3,0,9.6-4.3,9.6-9.6L429,195.3c0-5.3-4.3-9.6-9.6-9.6H216.6c-5.3,0-9.6,4.3-9.6,9.6
			l-22.6,127.1C184.4,327.7,188.7,332,194,332z"/>
		<path class="st3" d="M200.4,332h202.9c5.3,0,8.5-4.1,9.6-9.6l22.6-127.1c0-5.3-4.3-9.6-9.6-9.6H223c-5.3,0-9.6,4.3-9.6,9.6
			l-22.6,127.1C190.8,327.7,195.1,332,200.4,332z"/>
		<path class="st3" d="M271.3,302.9h76.3c2,0,3.6-1.6,3.6-3.6l8.5-47.8c0-2-1.6-3.6-3.6-3.6h-76.3c-2,0-3.6,1.6-3.6,3.6l-8.5,47.8
			C267.7,301.2,269.3,302.9,271.3,302.9z"/>
		<path class="st10" d="M280.7,342.7h44.6l13.8-68.4c0.9-4.2-0.9-7.6-5.1-7.6h-32c-4.2,0-7.6,3.4-7.6,7.6L280.7,342.7z"/>
		<path class="st9" d="M334.4,342.2h-72.9c-2.2,0-3.9,1.8-3.9,3.9l0,0c0,2.2,1.8,3.9,3.9,3.9h72.9c2.2,0,3.9-1.8,3.9-3.9l0,0
			C338.3,343.9,336.5,342.2,334.4,342.2z"/>
	</g>
	<path class="st3" d="M90.6,364.8l39.7-15.3c0,0,7.9,7.4,20.3,2.9"/>
	<path class="st5" d="M3.9,374.8h463.7c2.1,0,3.9-1.7,3.9-3.9v-17.4c0-2.1-1.7-3.9-3.9-3.9H3.9c-2.1,0-3.9,1.7-3.9,3.9V371
		C0,373.1,1.7,374.8,3.9,374.8z"/>
	<path class="st11" d="M134.1,276.4c0,9.9,7.7,17.9,17.3,17.9s17.3-8,17.3-17.9s-7.7-17.9-17.3-17.9
		C141.9,258.5,134.1,266.5,134.1,276.4z"/>
</g>
</svg>
