<?xml version="1.0" encoding="utf-8"?>
<!-- Generator: $$$/GeneralStr/196=Adobe Illustrator 27.6.0, SVG Export Plug-In . SVG Version: 6.00 Build 0)  -->
<svg version="1.1" id="Calque_1" xmlns="http://www.w3.org/2000/svg" xmlns:xlink="http://www.w3.org/1999/xlink" x="0px" y="0px"
	 viewBox="0 0 388.5 249" style="enable-background:new 0 0 388.5 249;" xml:space="preserve">
<style type="text/css">
	.st0{fill:none;stroke:#1A154C;stroke-width:0.5;stroke-linecap:round;stroke-miterlimit:10;}
	.st1{fill:#FDF6F0;}
	.st2{fill:#19154B;}
	.st3{fill:#FFFFFF;}
	.st4{fill:#986DF8;}
	
		.st5{clip-path:url(#SVGID_00000081632229353883388810000007481971355810404739_);fill:none;stroke:#1A154C;stroke-width:0.5;stroke-linecap:round;stroke-miterlimit:10;}
	.st6{fill:#1A154C;}
	.st7{fill:#FFFFFF;stroke:#1A154C;stroke-width:0.5;stroke-linecap:round;stroke-miterlimit:10;}
</style>
<g id="Calque_2">
</g>
<path class="st0" d="M373.8,232.3c0,2.3-0.9,4.3-2.4,5.8c-1.5,1.5-3.6,2.4-5.9,2.4H13.3c-4.6,0-8.3-3.7-8.3-8.2
	c0-2.3,0.9-4.4,2.4-5.9c1.5-1.5,3.6-2.4,5.9-2.4h352.2C370.1,224,373.8,227.7,373.8,232.3z"/>
<path class="st1" d="M320.7,17.6v182.3c0,5.8-4.6,10.4-10.4,10.4H51.9c-5.8,0-10.4-4.6-10.4-10.4V17.6c0-5.8,4.7-10.4,10.4-10.4
	h258.4C316.1,7.2,320.7,11.9,320.7,17.6z"/>
<path class="st2" d="M257.8,173.1v37.2H51.9c-5.8,0-10.5-4.6-10.5-10.4v-26.8H257.8z"/>
<polygon class="st2" points="230.8,197 190.3,197 190.3,138.6 230.8,119.2 "/>
<polygon class="st3" points="258.3,219 199.8,219 199.8,112.7 258.3,84.6 "/>
<path class="st0" d="M128.3,61.7c0,6.6,5.4,12,12,12c6.6,0,12-5.4,12-12s-5.4-12-12-12C133.6,49.7,128.3,55.1,128.3,61.7z"/>
<polygon class="st4" points="78,127.8 118.8,139 118.8,210.4 78,210.4 "/>
<g>
	<defs>
		<path id="SVGID_1_" d="M320.8,18.4v182.3c0,5.8-4.6,10.4-10.4,10.4H51.9c-5.8,0-10.5-4.6-10.5-10.4V18.4c0-5.8,4.7-10.5,10.5-10.5
			h258.4C316.1,7.9,320.8,12.6,320.8,18.4z"/>
	</defs>
	<clipPath id="SVGID_00000119806166759128071840000004191617457819555503_">
		<use xlink:href="#SVGID_1_"  style="overflow:visible;"/>
	</clipPath>
	
		<polyline style="clip-path:url(#SVGID_00000119806166759128071840000004191617457819555503_);fill:none;stroke:#1A154C;stroke-width:0.5;stroke-linecap:round;stroke-miterlimit:10;" points="
		329.2,23 259,70.5 259,221.1 	"/>
	
		<line style="clip-path:url(#SVGID_00000119806166759128071840000004191617457819555503_);fill:none;stroke:#1A154C;stroke-width:0.5;stroke-linecap:round;stroke-miterlimit:10;" x1="248.1" y1="90.5" x2="248.1" y2="216"/>
</g>
<path class="st0" d="M232.9,96.9V47.5c0-0.4-0.4-0.6-0.7-0.4l-50.7,27.4v104"/>
<line class="st0" x1="232.9" y1="46.6" x2="292" y2="46.6"/>
<polygon class="st3" points="285.5,212.7 274.4,212.7 274.4,104.2 285.5,96.6 "/>
<polygon class="st6" points="313.2,33.6 252.5,33.6 252.5,46.3 294.2,46.3 "/>
<path class="st3" d="M71.6,67.9l40-0.1c0,0-3.2-18.6-16.5-6.2c0,0-6.1-7.3-11.4,2C83.7,63.5,71.6,67.6,71.6,67.9z"/>
<rect x="86.8" y="163.1" class="st0" width="23.8" height="46.5"/>
<line class="st0" x1="57.6" y1="207.4" x2="57.6" y2="223.3"/>
<line class="st0" x1="306.2" y1="210.4" x2="306.2" y2="223.3"/>
<path class="st3" d="M362.1,121.1c-19.1,1.7-42.9,6.4-65,13.1c-20.5-3.3-51.2,7.1-76.9,28c-12,9.8-16.7,18.7-10.4,19.9
	c6.3,1.2,19-7.5,19-7.5s0,0,0.1,0.1C217.4,194.1,217,217,217,217s-1.7,5.4,4.7,3.6c6.4-1.7,18.6-26.7,18.6-26.7s-7.5,16.5,3.2,20.3
	c2.5,0.9,5.2,0,7.8-2c6.5,7.5,15.9,2.8,22.9-4.8l-3.7,5.2c5,4.6,14.8-1.8,21.3-9.4l2.8,1c0,0,14.5-6.8,17.4-26
	c0,0,31.3-6.6,55.3-9.5L362.1,121.1z"/>
<path class="st0" d="M265.7,185.8c0,0,12.5-10.8,18-1.8c5.5,9-18.6,43-31.4,27.3"/>
<path class="st0" d="M362.9,119.7c-36.8,3.2-90.6,17.7-117.5,36.3c-20.4,14.2-28.5,45-31.2,59.1c-0.9,4.9,3.5,9.2,8.3,7.9
	c0.1,0,0.1,0,0.2-0.1c6.4-1.7,18.4-30.4,18.4-30.4s-7.5,16.5,3.2,20.3c10.7,3.8,24.4-24.6,20.6-31.3c-3.8-6.7-14.3-7.1-23.6,10.5"/>
<path class="st0" d="M283.6,192.8c0,0,9-10.8,13.1-3.6c1.2,2.1,0.1,7.2-2.3,11.2c-5.9,9.2-17,16.5-23,11"/>
<path class="st7" d="M279.5,162.9c-22.8,26.2-49.9,10.4-49.9,10.4s-12.7,8.6-19,7.5c-6.3-1.2-1.6-10.1,10.4-19.9
	c26.2-21.3,57.8-31.8,78.2-27.8"/>
<path class="st0" d="M292.2,203.3c0,0,17.7-7.1,20.6-26.3c0,0,31.3-6.6,55.3-9.5"/>
<path class="st4" d="M315.5,121.7c0,0-6.6,3.3-2.8,17.4c3.8,14.1,4.7,40.4,15,40.4s34.7-6.1,45.5-5.2c10.8,0.9,11.3-54.9,5.6-59.6
	C373.2,109.9,336.6,111.3,315.5,121.7z"/>
<path class="st0" d="M332.6,161.1c0,3,2.4,5.3,5.3,5.3c3,0,5.3-2.4,5.3-5.3c0-3-2.4-5.3-5.3-5.3C335,155.7,332.6,158.1,332.6,161.1z
	"/>
<path class="st2" d="M221.8,239.2v1.3h-66.4v-1.3c0-3.6,2.9-6.4,6.5-6.4h53.5C218.9,232.8,221.8,235.6,221.8,239.2z"/>
</svg>
